<svg width="18" height="18" viewBox="0 0 18 18" fill="none" xmlns="http://www.w3.org/2000/svg">
<path d="M9.00011 17.3332C6.78998 17.3332 4.67035 16.4552 3.10755 14.8924C1.54475 13.3295 0.666779 11.21 0.666779 8.99983C0.666779 6.78969 1.54475 4.67008 3.10755 3.10728C4.67035 1.54448 6.78998 0.666504 9.00011 0.666504C11.2102 0.666504 13.3298 1.54448 14.8927 3.10728C16.4554 4.67008 17.3334 6.78969 17.3334 8.99983C17.3334 11.21 16.4554 13.3295 14.8927 14.8924C13.3298 16.4552 11.2102 17.3332 9.00011 17.3332ZM10.6668 15.4582C11.9579 15.1237 13.1191 14.4095 14.0001 13.4082V8.1665C13.5581 8.1665 13.1342 7.9909 12.8216 7.67835C12.509 7.36579 12.3334 6.94186 12.3334 6.49983V3.22483C11.5643 2.78245 10.7142 2.49906 9.83345 2.3915V3.1665C9.83345 3.60853 9.65785 4.03245 9.34529 4.34502C9.03272 4.65758 8.60881 4.83316 8.16678 4.83316V5.6665C8.16678 6.10853 7.99118 6.53245 7.67862 6.84502C7.36606 7.15758 6.94214 7.33316 6.50011 7.33316V8.99983H9.00011C9.44214 8.99983 9.86606 9.17543 10.1786 9.48799C10.4912 9.80055 10.6668 10.2245 10.6668 10.6665V15.4582ZM7.33345 15.4582V13.1665C6.89142 13.1665 6.46749 12.9909 6.15494 12.6783C5.84236 12.3658 5.66678 11.9419 5.66678 11.4998V10.6665H5.25011C4.91859 10.6665 4.60065 10.5348 4.36622 10.3004C4.13181 10.066 4.00011 9.74802 4.00011 9.4165V7.33316H2.54178C2.10115 9.04596 2.35828 10.8636 3.25668 12.387C4.15508 13.9104 5.62132 15.0149 7.33345 15.4582Z" fill="#657085"/>
</svg>
